<?xml version="1.0" standalone="no"?>
<!DOCTYPE svg PUBLIC "-//W3C//DTD SVG 20010904//EN"
 "http://www.w3.org/TR/2001/REC-SVG-20010904/DTD/svg10.dtd">
<svg version="1.0" xmlns="http://www.w3.org/2000/svg"
 width="512.000000pt" height="512.000000pt" viewBox="0 0 512.000000 512.000000"
 preserveAspectRatio="xMidYMid meet">

<g transform="translate(0.000000,512.000000) scale(0.100000,-0.100000)"
fill="#000000" stroke="none">
<path d="M822 5029 c-281 -37 -528 -232 -628 -495 -47 -124 -53 -190 -53 -569
0 -379 6 -445 53 -569 75 -198 240 -367 437 -445 148 -59 55 -56 1939 -56
1940 0 1802 -5 1961 71 180 86 303 211 384 387 68 149 70 168 70 612 0 359 -2
407 -19 470 -77 291 -282 497 -576 581 -62 18 -144 19 -1785 20 -946 1 -1748
-2 -1783 -7z m3533 -174 c216 -55 395 -234 450 -450 22 -87 22 -793 0 -880
-44 -174 -169 -328 -326 -403 -151 -72 -13 -67 -1919 -67 -1643 0 -1728 1
-1790 18 -173 49 -326 175 -400 329 -62 128 -69 189 -69 563 0 377 7 437 70
565 74 149 224 275 384 321 56 16 183 18 1800 18 1520 1 1748 -1 1800 -14z"/>
<path d="M2420 4705 c-153 -31 -275 -98 -390 -214 -136 -137 -207 -295 -217
-486 -20 -354 197 -656 547 -767 64 -20 95 -23 210 -22 118 1 145 4 215 27
256 86 440 279 511 538 24 88 24 280 0 368 -107 392 -489 634 -876 556z m60
-200 c0 -51 20 -99 45 -109 32 -12 69 -6 92 16 19 18 23 32 23 80 0 68 2 69
101 37 69 -23 84 -30 142 -66 l38 -24 -40 -44 c-49 -53 -54 -93 -16 -130 37
-38 77 -33 130 16 l44 40 27 -42 c33 -52 53 -99 70 -164 18 -67 19 -65 -25
-65 -76 0 -120 -30 -121 -83 0 -58 40 -87 121 -87 44 0 43 2 25 -65 -17 -65
-37 -112 -71 -164 l-27 -43 -36 35 c-46 44 -80 54 -120 33 -57 -29 -57 -80 -1
-141 l41 -44 -48 -31 c-56 -35 -137 -67 -194 -76 l-40 -7 0 61 c0 54 -3 63
-26 81 -67 52 -134 5 -134 -94 l0 -47 -37 7 c-56 10 -134 42 -187 76 l-49 30
36 37 c20 21 39 52 43 69 5 27 1 37 -24 63 -42 42 -73 39 -127 -11 l-44 -41
-31 48 c-33 53 -65 131 -75 186 l-7 35 58 5 c47 4 62 10 81 32 29 34 29 68 0
102 -19 22 -34 28 -81 32 l-58 5 7 35 c10 55 42 133 75 186 l31 48 44 -41 c25
-23 53 -41 64 -41 56 0 100 53 86 102 -4 13 -23 39 -42 59 l-35 36 29 20 c43
31 92 55 153 74 85 28 90 26 90 -26z"/>
<path d="M2509 4271 c-23 -18 -24 -25 -27 -168 -2 -106 1 -155 10 -173 19 -35
174 -124 217 -124 42 0 71 33 71 80 0 38 -21 64 -72 90 -67 34 -68 36 -68 161
0 100 -2 115 -20 133 -26 26 -80 26 -111 1z"/>
<path d="M874 4553 c-12 -2 -30 -13 -40 -25 -16 -17 -19 -41 -22 -169 l-3
-149 -145 0 c-141 0 -146 -1 -169 -25 -25 -24 -25 -25 -25 -220 0 -195 0 -196
25 -220 23 -24 28 -25 169 -25 l145 0 3 -150 c4 -205 -8 -194 225 -198 193 -4
214 -1 243 28 18 18 20 34 20 170 l0 150 150 0 c147 0 152 1 175 25 25 24 25
25 25 217 -1 136 -4 198 -13 209 -25 33 -55 39 -196 39 l-141 0 0 146 c0 80
-4 154 -10 164 -17 32 -66 40 -234 39 -89 -1 -171 -4 -182 -6z m268 -314 c4
-198 -5 -189 199 -189 l149 0 0 -85 0 -85 -144 0 c-79 0 -152 -3 -161 -6 -35
-14 -45 -58 -45 -199 l0 -135 -79 0 -80 0 -3 144 c-3 137 -4 146 -27 170 -24
26 -26 26 -173 26 l-148 0 0 85 0 85 148 0 c158 1 173 5 192 54 5 15 10 86 10
157 l0 129 79 0 80 0 3 -151z"/>
<path d="M3874 4546 c-44 -19 -54 -58 -54 -207 l0 -129 -145 0 c-142 0 -147
-1 -170 -25 -25 -24 -25 -25 -25 -220 0 -195 0 -196 25 -220 23 -24 29 -25
169 -25 l144 0 4 -150 c4 -205 -8 -194 225 -198 193 -4 214 -1 243 28 18 18
20 34 20 170 l0 150 150 0 c147 0 152 1 175 25 25 24 25 25 25 218 0 258 13
241 -194 245 l-156 3 0 145 c0 80 -4 154 -10 164 -17 32 -67 40 -234 40 -113
-1 -170 -5 -192 -14z m276 -291 c0 -141 10 -185 45 -199 9 -3 82 -6 161 -6
l144 0 0 -85 0 -85 -144 0 c-79 0 -152 -3 -161 -6 -35 -14 -45 -58 -45 -199
l0 -135 -79 0 -80 0 -3 144 c-3 137 -4 146 -27 170 -24 26 -26 26 -173 26
l-148 0 0 85 0 85 148 0 c158 1 173 5 192 54 5 15 10 86 10 157 l0 129 80 0
80 0 0 -135z"/>
<path d="M883 2476 c-188 -48 -352 -205 -409 -395 -55 -182 0 -399 136 -543
33 -34 58 -63 57 -64 -1 0 -38 -20 -83 -43 -232 -120 -383 -342 -414 -611 -7
-56 -10 -220 -8 -398 l3 -304 28 -24 28 -24 2345 0 2345 0 24 25 25 24 0 364
c0 419 -4 450 -87 617 -40 81 -60 109 -142 190 -78 78 -113 104 -186 141 l-91
46 36 31 c50 42 126 155 150 224 62 176 40 356 -61 508 -191 285 -589 335
-845 107 -170 -152 -231 -394 -154 -613 25 -72 100 -185 151 -226 l37 -30 -92
-46 c-73 -37 -109 -64 -182 -137 -52 -51 -106 -115 -124 -148 l-32 -58 -37 62
c-69 117 -246 271 -359 310 l-32 11 63 68 c216 233 206 573 -24 797 -213 208
-569 202 -783 -13 -218 -217 -222 -559 -10 -783 l64 -69 -32 -11 c-113 -40
-265 -166 -343 -285 -27 -42 -52 -76 -55 -76 -3 0 -20 25 -38 56 -70 115 -200
231 -328 291 l-60 29 57 57 c102 103 159 243 159 392 0 242 -140 444 -368 532
-81 31 -244 41 -329 19z m300 -183 c111 -52 178 -128 217 -244 78 -230 -83
-490 -320 -518 -181 -22 -346 62 -420 213 -111 225 0 488 240 568 83 27 199
19 283 -19z m1499 17 c196 -60 318 -261 278 -456 -35 -169 -174 -303 -336
-323 -88 -10 -172 3 -242 38 -244 125 -296 448 -102 642 107 107 256 144 402
99z m1533 5 c111 -29 213 -116 263 -223 24 -51 27 -69 27 -167 0 -101 -2 -115
-29 -170 -123 -250 -456 -306 -652 -111 -27 28 -63 78 -80 111 -27 55 -29 69
-29 170 0 98 3 116 27 167 84 180 280 273 473 223z m-2985 -971 c226 -53 418
-247 465 -470 11 -51 15 -144 15 -356 l0 -288 -690 0 -690 0 0 301 c0 331 5
367 62 485 76 156 227 279 400 324 95 25 341 27 438 4z m1593 -12 c194 -71
334 -207 398 -388 28 -79 40 -240 37 -499 l-3 -210 -693 -3 -694 -2 4 312 c4
266 7 321 22 368 58 178 176 315 336 391 104 50 163 59 360 55 147 -3 184 -6
233 -24z m1511 8 c115 -29 189 -73 282 -165 61 -60 90 -98 117 -155 63 -129
67 -159 67 -492 l0 -298 -690 0 -690 0 0 298 c0 333 4 363 67 492 27 57 56 95
117 155 143 142 255 184 502 184 119 1 167 -3 228 -19z"/>
</g>
</svg>
